<!-- Copyright 2024 Jelly Terra. Use of the content is subject to the CC BY-NC-ND 4.0 license. -->

<svg width="182.61575" height="189.63905" viewBox="0 0 182.61575 189.63906" xmlns="http://www.w3.org/2000/svg">
    <path style="fill:#d30001"
          d="M 103.19922,0.05078125 A 100,99.999992 0 0 0 0.0546875,96.712891 100,99.999992 0 0 0 55.722656,189.63867 l 10.357422,-5.17773 A 80,79.999992 0 0 1 31.654297,158.3457 L 35,155 l -5,-5 -2.537109,2.53711 a 80,79.999992 0 0 1 -12.419922,-45.16797 80,79.999992 0 0 1 0.96875,-8.666015 L 20,99.5 l 2,-7 -4.6875,-0.78125 A 80,79.999992 0 0 1 36.160156,56.160156 L 40,60 45,55 41.035156,51.035156 a 80,79.999992 0 0 1 34.128906,-18.375 L 77,40 85,38 83.248047,30.992188 a 80,79.999992 0 0 1 14.310547,-0.951172 80,79.999992 0 0 1 31.185546,7.470703 L 125,45 l 10,5 3.53906,-7.078125 a 80,79.999992 0 0 1 16.69922,14.458984 L 182.61719,43.691406 A 100,99.999992 0 0 0 103.19922,0.05078125 Z M 135,60 l -55,50 20,15 z"/>
</svg>
