<!-- Copyright 2024 Jelly Terra. Use of the content is subject to the CC BY-NC-ND 4.0 license. -->

<svg width="675.33087" height="191.81105" viewBox="0 0 675.33088 191.81106" xmlns="http://www.w3.org/2000/svg">
    <path style="fill:#d30001"
          d="M 103.1987,0.0503955 A 100,99.999992 0 0 0 0.05416723,96.712505 100,99.999992 0 0 0 55.722136,189.63829 l 10.435547,-5.21875 A 80,79.999992 0 0 1 31.68698,158.31211 l 3.3125,-3.3125 -5,-5 -2.50586,2.50586 a 80,79.999992 0 0 1 -12.451172,-45.13672 80,79.999992 0 0 1 0.96875,-8.666011 l 3.988282,0.796875 2,-7 -4.6875,-0.78125 A 80,79.999992 0 0 1 36.159636,56.15977 l 3.839844,3.839844 5,-5 -3.964844,-3.964844 a 80,79.999992 0 0 1 34.128906,-18.375 l 1.835938,7.339844 8,-2 -1.751953,-7.007812 a 80,79.999992 0 0 1 14.310546,-0.951172 80,79.999992 0 0 1 31.183597,7.474609 l -3.74219,7.484375 10,5 3.53906,-7.076172 a 80,79.999992 0 0 1 16.69727,14.458985 L 182.61667,43.69102 A 100,99.999992 0 0 0 103.1987,0.0503955 Z m 31.80078,57.4492185 -55,49.999996 20,15 z"/>
    <path style="fill:#d30001"
          d="m 152.49476,165.61296 h 10.752 q 8.36266,0 13.73866,-5.29067 5.46133,-5.376 5.46133,-15.44533 0,-10.15466 -5.376,-15.53066 -5.376,-5.46133 -13.73866,-5.46133 h -10.83733 z m 11.09333,9.38666 h -21.33333 v -60.50131 h 21.41866 q 12.8,0 21.07733,8.10666 8.36266,8.10667 8.36266,22.27199 0,14.08 -8.36266,22.10133 -8.36267,8.02133 -21.16266,8.02133 z m 36.864,-11.264 q 0,-5.29066 3.41333,-8.44799 3.49866,-3.24267 9.13066,-4.096 l 10.66666,-1.62133 q 3.072,-0.42667 3.072,-2.98667 0,-2.816 -1.96266,-4.52266 -1.96267,-1.792 -5.888,-1.792 -3.75467,0 -5.97333,2.13333 -2.21867,2.048 -2.56,5.376 l -9.04533,-2.048 q 0.59733,-5.632 5.376,-9.55733 4.77866,-4.01067 12.11732,-4.01067 9.04533,0 13.312,4.352 4.352,4.352 4.352,11.17866 v 20.65066 q 0,4.096 0.512,6.656 h -9.216 q -0.42667,-1.28 -0.42667,-5.29067 -4.09599,6.57067 -12.79999,6.57067 -6.31466,0 -10.24,-3.66933 -3.83999,-3.75467 -3.83999,-8.87467 z m 15.95732,4.77867 q 4.608,0 7.424,-2.47467 2.90133,-2.56 2.90133,-8.27733 v -1.87733 l -10.83733,1.62133 q -5.54666,0.93867 -5.54666,5.632 0,2.21867 1.62133,3.84 1.62133,1.536 4.43733,1.536 z m 28.33062,-4.77867 8.61867,-2.38933 q 0.256,2.98667 2.47466,5.03467 2.21867,2.04799 5.97333,2.04799 2.90134,0 4.52267,-1.36533 1.70666,-1.36533 1.70666,-3.41333 0,-3.584 -4.86399,-4.608 l -6.144,-1.36533 q -5.376,-1.19467 -8.27733,-4.43733 -2.90133,-3.24267 -2.90133,-7.68 0,-5.46133 4.43733,-9.38666 4.43733,-4.01067 10.83733,-4.01067 4.096,0 7.25333,1.19467 3.15733,1.19467 4.864,3.15733 1.792,1.87733 2.73066,3.66933 0.93867,1.792 1.19467,3.584 l -8.36267,2.38933 q -0.34133,-2.38933 -2.21866,-4.26666 -1.792,-1.96267 -5.46133,-1.96267 -2.56,0 -4.26667,1.45067 -1.70666,1.36533 -1.70666,3.328 0,3.49866 4.18133,4.352 l 6.31466,1.28 q 5.80267,1.27999 8.87467,4.60799 3.07199,3.328 3.07199,8.02133 0,5.20533 -4.18133,9.30133 -4.096,4.01067 -11.51999,4.01067 -4.26667,0 -7.68,-1.28 -3.328,-1.28 -5.29066,-3.24267 -1.87734,-2.048 -2.98667,-4.01066 -1.024,-2.048 -1.19467,-4.01067 z M 297.3054,150.5943 v 24.40532 h -9.89866 v -61.78131 h 9.89866 v 24.23466 q 4.01067,-5.20533 11.86133,-5.20533 7.33867,0 11.264,4.60799 3.92533,4.608 3.92533,11.86133 v 26.28266 h -9.89866 v -24.57599 q 0,-4.18133 -2.048,-6.656 -2.048,-2.56 -6.48533,-2.56 -3.92533,0 -6.22933,2.64533 -2.21867,2.64534 -2.38934,6.74134 z"/>
    <path style="fill:#000000"
          d="m 333.828,163.73562 q 0,-5.29066 3.41334,-8.44799 3.49866,-3.24267 9.13066,-4.096 l 10.66666,-1.62133 q 3.072,-0.42667 3.072,-2.98667 0,-2.816 -1.96267,-4.52266 -1.96266,-1.792 -5.88799,-1.792 -3.75467,0 -5.97333,2.13333 -2.21867,2.048 -2.56,5.376 l -9.04533,-2.048 q 0.59733,-5.632 5.376,-9.55733 4.77866,-4.01067 12.11732,-4.01067 9.04533,0 13.312,4.352 4.352,4.352 4.352,11.17866 v 20.65066 q 0,4.096 0.512,6.656 h -9.216 q -0.42667,-1.28 -0.42667,-5.29067 -4.09599,6.57067 -12.79999,6.57067 -6.31466,0 -10.24,-3.66933 -3.84,-3.75467 -3.84,-8.87467 z m 15.95733,4.77867 q 4.608,0 7.424,-2.47467 2.90133,-2.56 2.90133,-8.27733 v -1.87733 l -10.83733,1.62133 q -5.54666,0.93867 -5.54666,5.632 0,2.21867 1.62133,3.84 1.62133,1.536 4.43733,1.536 z m 41.89861,-17.49333 v 23.97866 h -9.89866 V 133.4423 h 9.64266 v 5.54667 q 1.96267,-3.41334 5.20534,-5.03467 3.32799,-1.70666 7.08266,-1.70666 7.33866,0 11.17866,4.60799 3.84,4.608 3.84,11.86133 v 26.28266 h -9.89866 v -24.57599 q 0,-4.18133 -2.048,-6.656 -2.048,-2.56 -6.48533,-2.56 -4.096,0 -6.4,2.816 -2.21867,2.73067 -2.21867,6.99733 z m 36.52261,12.71466 q 0,-5.29066 3.41333,-8.44799 3.49866,-3.24267 9.13066,-4.096 l 10.66666,-1.62133 q 3.072,-0.42667 3.072,-2.98667 0,-2.816 -1.96267,-4.52266 -1.96266,-1.792 -5.88799,-1.792 -3.75467,0 -5.97333,2.13333 -2.21867,2.048 -2.56,5.376 l -9.04533,-2.048 q 0.59733,-5.632 5.376,-9.55733 4.77866,-4.01067 12.11732,-4.01067 9.04533,0 13.312,4.352 4.352,4.352 4.352,11.17866 v 20.65066 q 0,4.096 0.512,6.656 h -9.216 q -0.42667,-1.28 -0.42667,-5.29067 -4.09599,6.57067 -12.79999,6.57067 -6.31466,0 -10.24,-3.66933 -3.83999,-3.75467 -3.83999,-8.87467 z m 15.95732,4.77867 q 4.608,0 7.424,-2.47467 2.90133,-2.56 2.90133,-8.27733 v -1.87733 l -10.83733,1.62133 q -5.54666,0.93867 -5.54666,5.632 0,2.21867 1.62133,3.84 1.62133,1.536 4.43733,1.536 z m 41.89861,6.48533 h -9.89866 v -61.78131 h 9.89866 z m 25.4294,16.81066 h -10.58133 l 9.984,-21.75999 -17.74933,-36.60799 h 11.17866 l 11.94666,26.28266 11.17867,-26.28266 h 10.49599 z m 47.10394,-71.08264 v 12.71466 h 8.61866 v 8.78933 h -8.61866 v 19.28533 q 0,2.73066 1.28,4.01066 1.28,1.19467 4.01066,1.19467 1.70667,0 3.41333,-0.34133 v 8.19199 q -2.21866,0.93867 -6.05866,0.93867 -5.80266,0 -9.13066,-3.24267 -3.328,-3.328 -3.328,-9.13066 v -20.90666 h -7.68 v -8.78933 h 2.13333 q 3.15734,0 4.77867,-1.792 1.62133,-1.792 1.62133,-4.69333 v -6.22933 z m 28.58668,54.27198 h -9.81333 V 133.4423 h 9.81333 z m -9.47199,-51.62665 q -1.87733,-1.87733 -1.87733,-4.52266 0,-2.64533 1.87733,-4.52267 1.87733,-1.96266 4.52266,-1.96266 2.73067,0 4.608,1.87733 1.87733,1.87733 1.87733,4.608 0,2.64533 -1.87733,4.52266 -1.87733,1.87734 -4.608,1.87734 -2.64533,0 -4.52266,-1.87734 z m 40.3626,17.92 q -4.77866,0 -8.10666,3.49866 -3.328,3.41333 -3.328,9.38666 0,6.05867 3.328,9.55733 3.41333,3.49867 8.27733,3.49867 4.352,0 6.912,-2.304 2.64533,-2.38933 3.49866,-5.376 l 8.704,3.15733 q -1.70667,5.54667 -6.656,9.55733 -4.86399,4.01067 -12.45866,4.01067 -9.13066,0 -15.35999,-6.31467 -6.144,-6.31466 -6.144,-15.78666 0,-9.55733 6.05866,-15.78666 6.144,-6.22933 15.18933,-6.22933 7.76533,0 12.62933,4.01067 4.94933,4.01066 6.4,9.64266 l -8.87467,3.24267 q -0.85333,-3.24267 -3.32799,-5.46134 -2.38934,-2.30399 -6.74134,-2.30399 z m 24.40536,22.44265 8.61866,-2.38933 q 0.256,2.98667 2.47467,5.03467 2.21866,2.04799 5.97333,2.04799 2.90133,0 4.52266,-1.36533 1.70667,-1.36533 1.70667,-3.41333 0,-3.584 -4.864,-4.608 l -6.144,-1.36533 q -5.37599,-1.19467 -8.27733,-4.43733 -2.90133,-3.24267 -2.90133,-7.68 0,-5.46133 4.43733,-9.38666 4.43733,-4.01067 10.83733,-4.01067 4.096,0 7.25333,1.19467 3.15733,1.19467 4.864,3.15733 1.792,1.87733 2.73067,3.66933 0.93866,1.792 1.19466,3.584 l -8.36266,2.38933 q -0.34133,-2.38933 -2.21867,-4.26666 -1.792,-1.96267 -5.46133,-1.96267 -2.56,0 -4.26666,1.45067 -1.70667,1.36533 -1.70667,3.328 0,3.49866 4.18133,4.352 l 6.31467,1.28 q 5.80266,1.27999 8.87466,4.60799 3.072,3.328 3.072,8.02133 0,5.20533 -4.18133,9.30133 -4.096,4.01067 -11.52,4.01067 -4.26666,0 -7.68,-1.28 -3.32799,-1.28 -5.29066,-3.24267 -1.87733,-2.048 -2.98667,-4.01066 -1.024,-2.048 -1.19466,-4.01067 z"/>
</svg>
